grf
version=1
nRows=9
nColumns=37
inDegrees=no
endheader
time	ground_force_1_vx	ground_force_1_vy	ground_force_1_vz	ground_force_1_px	ground_force_1_py	ground_force_1_pz	ground_moment_1_mx	ground_moment_1_my	ground_moment_1_mz	ground_force_2_vx	ground_force_2_vy	ground_force_2_vz	ground_force_2_px	ground_force_2_py	ground_force_2_pz	ground_moment_2_mx	ground_moment_2_my	ground_moment_2_mz	ground_force_3_vx	ground_force_3_vy	ground_force_3_vz	ground_force_3_px	ground_force_3_py	ground_force_3_pz	ground_moment_3_mx	ground_moment_3_my	ground_moment_3_mz	ground_force_4_vx	ground_force_4_vy	ground_force_4_vz	ground_force_4_px	ground_force_4_py	ground_force_4_pz	ground_moment_4_mx	ground_moment_4_my	ground_moment_4_mz
      4.01000000	      0.00000000	     -0.00000000	      0.00000000	      0.00000000	      0.00000000	      0.00000000	      0.00000000	      0.00000000	      0.00000000	      5.22379255	    256.30929565	   -941.57775879	   -254.81428189	  -1209.20951655	      0.00000000	      0.00000000	     -0.00000000	   -967.87555000	     26.94789927	   -213.54225394	   -861.47216797	   -265.13048798	   -594.54898154	      0.00000000	      0.00000000	      0.00000000	   1314.03617503	      0.00000000	     -0.00000000	      0.00000000	      0.00000000	      0.00000000	      0.00000000	      0.00000000	      0.00000000	      0.00000000
      4.02000000	      0.00000000	     -0.00000000	      0.00000000	      0.00000000	      0.00000000	      0.00000000	      0.00000000	      0.00000000	      0.00000000	     -4.51913452	    260.02267456	   -944.71423340	   -249.11962129	  -1212.18525477	      0.00000000	      0.00000000	     -0.00000000	  -1584.26626385	     18.18645048	   -223.67866675	   -862.05529785	   -256.88410884	   -590.25190958	      0.00000000	      0.00000000	      0.00000000	   3054.95238158	      0.00000000	     -0.00000000	      0.00000000	      0.00000000	      0.00000000	      0.00000000	      0.00000000	      0.00000000	      0.00000000
      4.03000000	      0.00000000	     -0.00000000	      0.00000000	      0.00000000	      0.00000000	      0.00000000	      0.00000000	      0.00000000	      0.00000000	    -11.47682476	    259.91311646	   -946.01000977	   -243.94221825	  -1214.11741362	      0.00000000	     -0.00000000	     -0.00000000	  -1608.07747719	     10.76478749	   -231.22616671	   -867.72015381	   -249.13826630	   -586.18697575	      0.00000000	      0.00000000	      0.00000000	   4403.28839819	      0.00000000	     -0.00000000	      0.00000000	      0.00000000	      0.00000000	      0.00000000	      0.00000000	      0.00000000	      0.00000000
      4.04000000	      0.00000000	     -0.00000000	      0.00000000	      0.00000000	      0.00000000	      0.00000000	      0.00000000	      0.00000000	      0.00000000	    -17.70406532	    258.93225098	   -951.54675293	   -239.98123994	  -1215.72053635	      0.00000000	     -0.00000000	     -0.00000000	  -1390.80472949	      1.44213585	   -231.40283216	   -875.67224121	   -242.59881243	   -582.59672347	      0.00000000	      0.00000000	      0.00000000	   4197.74968963	      0.00000000	     -0.00000000	      0.00000000	      0.00000000	      0.00000000	      0.00000000	      0.00000000	      0.00000000	      0.00000000
      4.05000000	      0.00000000	     -0.00000000	      0.00000000	      0.00000000	      0.00000000	      0.00000000	      0.00000000	      0.00000000	      0.00000000	    -15.18610096	    261.32592773	   -959.39758301	   -238.67779120	  -1217.00526326	      0.00000000	      0.00000000	     -0.00000000	  -2150.22488494	     -3.81458384	   -229.80107083	   -885.67120361	   -237.79265771	   -579.18477955	      0.00000000	      0.00000000	      0.00000000	   3573.33930148	      0.00000000	     -0.00000000	      0.00000000	      0.00000000	      0.00000000	      0.00000000	      0.00000000	      0.00000000	      0.00000000
      4.06000000	      0.00000000	     -0.00000000	      0.00000000	      0.00000000	      0.00000000	      0.00000000	      0.00000000	      0.00000000	      0.00000000	    -12.78494835	    262.39990234	   -968.28668213	   -237.23812037	  -1217.70056225	      0.00000000	      0.00000000	     -0.00000000	  -3185.14063648	      2.38247257	   -239.37196371	   -902.63671875	   -236.10502905	   -578.04134281	      0.00000000	      0.00000000	      0.00000000	   5041.34991600	      0.00000000	     -0.00000000	      0.00000000	      0.00000000	      0.00000000	      0.00000000	      0.00000000	      0.00000000	      0.00000000
      4.07000000	      0.00000000	     -0.00000000	      0.00000000	      0.00000000	      0.00000000	      0.00000000	      0.00000000	      0.00000000	      0.00000000	    -14.07468319	    261.46072388	   -970.70141602	   -236.39334073	  -1218.66060403	      0.00000000	      0.00000000	     -0.00000000	  -3773.37297372	      5.81408443	   -246.57383779	   -911.17742920	   -234.79882657	   -576.39393644	      0.00000000	      0.00000000	      0.00000000	   6749.49557449	      0.00000000	     -0.00000000	      0.00000000	      0.00000000	      0.00000000	      0.00000000	      0.00000000	      0.00000000	      0.00000000
      4.08000000	      0.00000000	     -0.00000000	      0.00000000	      0.00000000	      0.00000000	      0.00000000	      0.00000000	      0.00000000	      0.00000000	    -17.28615952	    255.38694763	   -973.66094971	   -234.97742975	  -1219.23007886	      0.00000000	      0.00000000	     -0.00000000	  -3835.23603306	      3.41199752	   -251.27561981	   -912.44024658	   -233.29343808	   -574.27842651	      0.00000000	      0.00000000	      0.00000000	   7908.80047627	      0.00000000	     -0.00000000	      0.00000000	      0.00000000	      0.00000000	      0.00000000	      0.00000000	      0.00000000	      0.00000000
      4.09000000	      0.00000000	     -0.00000000	      0.00000000	      0.00000000	      0.00000000	      0.00000000	      0.00000000	      0.00000000	      0.00000000	    -24.83333206	    246.33566284	   -977.10797119	   -234.55760967	  -1219.57834321	      0.00000000	     -0.00000000	     -0.00000000	  -3549.27208803	     -5.13703273	   -253.37438920	   -911.04223633	   -231.64220136	   -573.25797830	      0.00000000	     -0.00000000	     -0.00000000	   8603.18734770	      0.00000000	     -0.00000000	      0.00000000	      0.00000000	      0.00000000	      0.00000000	      0.00000000	      0.00000000	      0.00000000
